<svg width="40" height="25" viewBox="0 0 40 25" fill="none" xmlns="http://www.w3.org/2000/svg">
<path d="M7.45597 24.7327C3.80469 24.3104 0.763327 21.4311 0.12721 17.7944C-0.805078 12.4645 3.51468 7.59548 8.90241 7.9036C9.63933 7.94588 10.6173 8.1264 11.0671 8.30348C11.1603 8.34005 11.2631 8.16731 11.5195 7.54297C12.1433 6.02406 13.053 4.68499 14.2772 3.48368C15.9925 1.80048 18.0102 0.718372 20.4569 0.169289C21.1234 0.0197468 21.4505 -0.00213312 22.9873 0.000152587H24.7522L25.8182 0.280268C27.6109 0.751295 29.098 1.46854 30.4681 2.52276C32.968 4.44641 34.6568 7.32087 35.1557 10.5015C35.3523 11.7545 35.2328 14.1505 34.9206 15.2166L34.8492 15.4605L35.5733 15.5039C36.4833 15.5582 37.2682 15.8216 37.9904 16.3151C38.6953 16.7968 39.1669 17.344 39.5376 18.1105C39.924 18.9093 40.042 19.5225 39.9874 20.4461C39.9339 21.3506 39.7198 21.9832 39.2084 22.7477C38.6192 23.6287 37.777 24.2456 36.6361 24.6319C36.222 24.7721 35.6364 24.7785 22.1245 24.7882C14.3804 24.7939 7.77954 24.7676 7.45597 24.7303V24.7327Z" fill="#00BCF2"/>
</svg>
