<svg width="32" height="32" viewBox="0 0 32 32" fill="none" xmlns="http://www.w3.org/2000/svg">
<g id="octicon:x-12">
<path id="Vector" d="M5.92 5.92C6.1055 5.73423 6.32581 5.58685 6.56833 5.4863C6.81084 5.38574 7.0708 5.33398 7.33333 5.33398C7.59586 5.33398 7.85582 5.38574 8.09833 5.4863C8.34085 5.58685 8.56116 5.73423 8.74666 5.92L16 13.1707L23.2533 5.92C23.4389 5.73439 23.6593 5.58717 23.9018 5.48672C24.1443 5.38627 24.4042 5.33457 24.6667 5.33457C24.9291 5.33457 25.1891 5.38627 25.4316 5.48672C25.6741 5.58717 25.8944 5.73439 26.08 5.92C26.2656 6.1056 26.4128 6.32594 26.5133 6.56844C26.6137 6.81094 26.6654 7.07085 26.6654 7.33333C26.6654 7.59581 26.6137 7.85572 26.5133 8.09822C26.4128 8.34072 26.2656 8.56106 26.08 8.74666L18.8293 16L26.08 23.2533C26.4548 23.6282 26.6654 24.1366 26.6654 24.6667C26.6654 25.1968 26.4548 25.7052 26.08 26.08C25.7052 26.4548 25.1968 26.6654 24.6667 26.6654C24.1366 26.6654 23.6282 26.4548 23.2533 26.08L16 18.8293L8.74666 26.08C8.37182 26.4548 7.86343 26.6654 7.33333 26.6654C6.80323 26.6654 6.29484 26.4548 5.92 26.08C5.54516 25.7052 5.33457 25.1968 5.33457 24.6667C5.33457 24.1366 5.54516 23.6282 5.92 23.2533L13.1707 16L5.92 8.74666C5.73423 8.56116 5.58685 8.34085 5.4863 8.09833C5.38574 7.85582 5.33398 7.59586 5.33398 7.33333C5.33398 7.0708 5.38574 6.81084 5.4863 6.56833C5.58685 6.32581 5.73423 6.1055 5.92 5.92Z" fill="black"/>
</g>
</svg>
