<svg width="36" height="41" viewBox="0 0 36 41" fill="none" xmlns="http://www.w3.org/2000/svg">
<path d="M34.7448 15H0.704557C0.315548 15 0 15.3144 0 15.7034V40.1437C0 40.5321 0.315548 40.8471 0.704557 40.8471H34.7442C35.1354 40.8471 35.4493 40.5321 35.4493 40.1437V15.7034C35.4493 15.3144 35.1354 15 34.7448 15ZM11.8105 35.6943C10.6357 35.6943 9.33788 35.4583 8.33614 35.0621C8.18532 35.0025 8.09294 34.8478 8.11576 34.687L8.44411 32.2973C8.45746 32.1915 8.51979 32.098 8.61106 32.0435C8.70567 31.9884 8.81809 31.9789 8.91604 32.0162C10.0174 32.4319 10.9434 32.6022 12.1127 32.6022C13.3382 32.6022 14.1919 32.0234 14.1919 31.1953C14.1919 30.1674 13.696 29.6176 10.9852 29.4629C10.7987 29.4523 10.6541 29.2982 10.6541 29.1117V26.7226C10.6541 26.5378 10.796 26.3842 10.9796 26.3709C13.3142 26.2061 13.5841 25.4882 13.5841 24.9629C13.5841 24.6072 13.5841 24.0118 12.0036 24.0118C11.1583 24.0118 10.2606 24.2422 9.33677 24.6941C9.23437 24.7425 9.11527 24.7402 9.01732 24.689C8.91659 24.6356 8.8487 24.5377 8.83367 24.4264L8.50644 22.0378C8.48418 21.8847 8.5671 21.7356 8.70623 21.6699C9.78198 21.1724 11.1393 20.9203 12.7432 20.9203C15.6021 20.9203 17.5232 22.2481 17.5232 24.2243C17.5232 25.7064 16.7569 26.7971 15.1847 27.5384C16.5343 28.0588 17.9133 29.0032 17.9133 31.0011C17.9133 33.8516 15.5192 35.6943 11.8105 35.6943ZM26.6797 35.1249C26.6797 35.3192 26.5216 35.4767 26.3274 35.4767H23.4184C23.2231 35.4767 23.0662 35.3192 23.0662 35.1249V25.5405L21.1545 26.2696C21.0521 26.3074 20.9414 26.2985 20.8495 26.2429C20.7566 26.1889 20.6943 26.0948 20.6809 25.9885L20.3553 23.5988C20.3348 23.4491 20.4121 23.3027 20.5479 23.2365L24.7179 21.1741C24.7669 21.1507 24.8203 21.1379 24.8749 21.1379H26.3279C26.5222 21.1379 26.6802 21.2954 26.6802 21.4902L26.6797 35.1249Z" fill="black"/>
<path d="M34.7448 3.14824H31.1168V4.84619C31.1168 6.64654 30.09 8.56932 27.2045 8.56932C24.3189 8.56932 23.2915 6.64654 23.2915 4.84619V3.14824H12.204V4.84619C12.204 6.64654 11.1772 8.56932 8.29162 8.56932C5.4055 8.56932 4.37593 6.64654 4.37593 4.84619V3.14824H0.704557C0.315548 3.14824 0 3.46267 0 3.85168V11.008C0 11.3976 0.315548 11.7126 0.704557 11.7126H34.7442C35.1354 11.7126 35.4493 11.3976 35.4493 11.008V3.85168C35.4493 3.46267 35.1354 3.14824 34.7448 3.14824Z" fill="black"/>
<path d="M27.6429 6.29593C28.8088 6.29593 29.2824 5.87576 29.2824 4.84563V3.14824V1.45085C29.2824 0.419618 28.8088 0 27.6429 0C26.4736 0 26 0.420174 26 1.45085V3.14824V4.84619C26 5.87631 26.4736 6.29593 27.6429 6.29593Z" fill="black"/>
<path d="M8.63951 6.29593C9.80543 6.29593 10.279 5.87576 10.279 4.84563V3.14824V1.45085C10.279 0.419618 9.80543 0 8.63951 0C7.47026 0 7 0.420174 7 1.45085V3.14824V4.84619C6.99944 5.87631 7.47026 6.29593 8.63951 6.29593Z" fill="black"/>
</svg>
