<svg width="40" height="40" viewBox="0 0 40 40" fill="none" xmlns="http://www.w3.org/2000/svg">
<path d="M11 28C11.7956 28 12.5587 27.6839 13.1213 27.1213C13.6839 26.5587 14 25.7956 14 25C14.0098 24.9002 14.0098 24.7998 14 24.7L19.58 19.12H20.04H20.5L23.72 22.34C23.72 22.34 23.72 22.44 23.72 22.5C23.72 23.2956 24.0361 24.0587 24.5987 24.6213C25.1613 25.1839 25.9244 25.5 26.72 25.5C27.5156 25.5 28.2787 25.1839 28.8413 24.6213C29.4039 24.0587 29.72 23.2956 29.72 22.5V22.34L37 15C37.5933 15 38.1734 14.8241 38.6667 14.4944C39.1601 14.1648 39.5446 13.6962 39.7716 13.1481C39.9987 12.5999 40.0581 11.9967 39.9424 11.4147C39.8266 10.8328 39.5409 10.2982 39.1213 9.87868C38.7018 9.45912 38.1672 9.1734 37.5853 9.05764C37.0033 8.94189 36.4001 9.0013 35.852 9.22836C35.3038 9.45542 34.8352 9.83994 34.5056 10.3333C34.1759 10.8266 34 11.4067 34 12C33.9902 12.0998 33.9902 12.2002 34 12.3L26.78 19.52H26.46L23 16C23 15.2044 22.6839 14.4413 22.1213 13.8787C21.5587 13.3161 20.7956 13 20 13C19.2044 13 18.4413 13.3161 17.8787 13.8787C17.3161 14.4413 17 15.2044 17 16L11 22C10.2044 22 9.44129 22.3161 8.87868 22.8787C8.31607 23.4413 8 24.2044 8 25C8 25.7956 8.31607 26.5587 8.87868 27.1213C9.44129 27.6839 10.2044 28 11 28ZM38 36H4V2C4 1.46957 3.78929 0.960859 3.41421 0.585786C3.03914 0.210714 2.53043 0 2 0C1.46957 0 0.960859 0.210714 0.585786 0.585786C0.210714 0.960859 0 1.46957 0 2V38C0 38.5304 0.210714 39.0391 0.585786 39.4142C0.960859 39.7893 1.46957 40 2 40H38C38.5304 40 39.0391 39.7893 39.4142 39.4142C39.7893 39.0391 40 38.5304 40 38C40 37.4696 39.7893 36.9609 39.4142 36.5858C39.0391 36.2107 38.5304 36 38 36Z" fill="black"/>
</svg>
