<svg width="43" height="40" viewBox="0 0 43 40" fill="none" xmlns="http://www.w3.org/2000/svg">
<path fill-rule="evenodd" clip-rule="evenodd" d="M28 40H4C1.79086 40 0 38.2091 0 36V4C0 1.79086 1.79086 0 4 0H28C30.2091 0 32 1.79086 32 4V36C32 38.2091 30.2091 40 28 40ZM14 9C14 8.4477 14.4477 8 15 8H27C27.5523 8 28 8.4477 28 9C28 9.5523 27.5523 10 27 10H15C14.4477 10 14 9.5523 14 9ZM15 12C14.4477 12 14 12.4477 14 13C14 13.5523 14.4477 14 15 14H27C27.5523 14 28 13.5523 28 13C28 12.4477 27.5523 12 27 12H15ZM11.7071 8.2929C12.0976 8.6834 12.0976 9.3166 11.7071 9.7071L7 14.4142L4.29289 11.7071C3.90237 11.3166 3.90237 10.6834 4.29289 10.2929C4.68342 9.9024 5.31658 9.9024 5.70711 10.2929L7 11.5858L10.2929 8.2929C10.6834 7.9024 11.3166 7.9024 11.7071 8.2929ZM15 20C14.4477 20 14 20.4477 14 21C14 21.5523 14.4477 22 15 22H27C27.5523 22 28 21.5523 28 21C28 20.4477 27.5523 20 27 20H15ZM14 25C14 24.4477 14.4477 24 15 24H27C27.5523 24 28 24.4477 28 25C28 25.5523 27.5523 26 27 26H15C14.4477 26 14 25.5523 14 25ZM10 20H5C4.44772 20 4 20.4477 4 21V26C4 26.5523 4.44772 27 5 27H10C10.5523 27 11 26.5523 11 26V21C11 20.4477 10.5523 20 10 20Z" fill="#333333"/>
<path fill-rule="evenodd" clip-rule="evenodd" d="M43 36L40 40L37 36V18H43V36Z" fill="#333333"/>
<path fill-rule="evenodd" clip-rule="evenodd" d="M39 11H41C42.1046 11 43 11.8954 43 13V17H37V13C37 11.8954 37.8954 11 39 11Z" fill="#333333"/>
</svg>
