<svg width="47" height="40" viewBox="0 0 47 40" fill="none" xmlns="http://www.w3.org/2000/svg">
<path d="M3.75 13.7931C3.75 6.63638 8.51463 0 15.039 0C19.5666 0 22.9263 2.9775 25 7.20138C27.0736 2.97775 30.4333 0 34.961 0C41.4861 0 46.25 6.6375 46.25 13.7931C46.25 29.111 25 40 25 40C25 40 10.6859 33.109 5.55387 21.8055H18.231L20.246 18.2235L22.5996 26.4615L28.1114 19.375H35V16.875H26.8886L23.6504 21.0385L21.004 11.7765L16.769 19.3055H4.5998C4.86478 20.161 5.18575 20.9946 5.55387 21.8055L0 21.8054V19.3054L4.5998 19.3055C4.05804 17.5566 3.75 15.7164 3.75 13.7931Z" fill="#333333"/>
</svg>
