<svg width="40" height="41" viewBox="0 0 40 41" fill="none" xmlns="http://www.w3.org/2000/svg">
<path d="M21.4537 1.43215C21.4537 0.641203 20.8125 0 20.0215 0C19.2307 0 18.5894 0.641203 18.5894 1.43215V30.0233H21.4537V1.43215Z" fill="#8D65C5"/>
<path d="M5.01253 18.5893C6.84569 18.5893 8.4497 19.5918 9.30899 21.067C9.4522 21.2961 9.69567 21.4393 9.96778 21.4393H10.0537C10.3258 21.4393 10.5693 21.2961 10.7125 21.067C11.5861 19.5918 13.1758 18.5893 15.009 18.5893C16.8421 18.5893 18.4461 19.5918 19.3054 21.067C19.4486 21.2961 19.6921 21.4393 19.9642 21.4393H20.0501C20.3222 21.4393 20.5657 21.2961 20.7089 21.067C21.5825 19.5918 23.1722 18.5893 25.0054 18.5893C26.8385 18.5893 28.4425 19.5918 29.3018 21.067C29.445 21.2961 29.6885 21.4393 29.9606 21.4393H30.0465C30.3187 21.4393 30.5621 21.2961 30.7053 21.067C31.5789 19.5918 33.1686 18.5893 35.0018 18.5893C36.9209 18.5893 38.5822 19.6778 39.4128 21.2818C39.4701 21.382 39.5704 21.4536 39.6849 21.4536C39.8568 21.4536 40 21.3104 40 21.1386C39.8568 10.2256 30.9631 1.43216 20.0072 1.43216C9.0512 1.43216 0.171858 10.2256 0 21.1242C0 21.2961 0.143215 21.4393 0.315073 21.4393C0.429646 21.4393 0.544218 21.3677 0.587182 21.2675C1.43215 19.6778 3.09345 18.5893 5.01253 18.5893Z" fill="#8D65C5"/>
<path d="M20.0216 28.5858C20.8126 28.5858 21.4538 29.2269 21.4538 30.0179V35.0877C21.4538 37.8406 19.2372 40.0573 16.4842 40.0573C13.7275 40.0573 11.5146 37.8226 11.5146 35.0877C11.5146 34.2967 12.156 33.6556 12.9468 33.6556C13.7378 33.6556 14.379 34.2967 14.379 35.0877C14.379 36.2482 15.317 37.193 16.4842 37.193C17.6554 37.193 18.5895 36.2588 18.5895 35.0877V30.0179C18.5895 29.2269 19.2308 28.5858 20.0216 28.5858Z" fill="#8D65C5"/>
<path d="M1.7475 3.0648C0.945495 3.85249 0.945495 5.15575 1.7475 5.95775C2.5495 6.75976 3.85276 6.75976 4.65477 5.95775L7.10375 3.49445C7.90575 2.70677 7.90575 1.40351 7.10375 0.601504C6.31606 -0.200501 5.01281 -0.200501 4.2108 0.601504L1.7475 3.0648ZM33.8563 8.79341C33.0543 9.5811 33.0543 10.8844 33.8563 11.6864C34.6583 12.4884 35.9615 12.4884 36.7492 11.6864L39.2125 9.22306C40.0145 8.43537 40.0145 7.13212 39.2125 6.33011C38.4248 5.52811 37.1216 5.52811 36.3196 6.33011L33.8563 8.79341ZM23.8312 5.95775C23.0292 5.15575 23.0292 3.85249 23.8312 3.0648L26.2945 0.601504C27.0965 -0.200501 28.3998 -0.200501 29.1875 0.601504C29.9895 1.40351 29.9895 2.70677 29.1875 3.49445L26.7242 5.95775C25.9365 6.75976 24.6332 6.75976 23.8312 5.95775ZM10.9418 8.79341C10.1398 9.5811 10.1398 10.8844 10.9418 11.6864C11.7438 12.4884 13.0471 12.4884 13.8491 11.6864L16.2981 9.22306C17.1001 8.43537 17.1001 7.13212 16.2981 6.33011C15.5104 5.52811 14.2071 5.52811 13.4051 6.33011L10.9418 8.79341Z" fill="#00A6ED"/>
</svg>
