<svg width="40" height="40" viewBox="0 0 40 40" fill="none" xmlns="http://www.w3.org/2000/svg">
<path d="M17.7778 2.22222C17.7778 2.22222 17.7778 0 20 0C22.2222 0 22.2222 2.22222 22.2222 2.22222V4.44444C22.2222 4.44444 22.2222 6.66667 20 6.66667C17.7778 6.66667 17.7778 4.44444 17.7778 4.44444V2.22222ZM37.7778 17.7778C37.7778 17.7778 40 17.7778 40 20C40 22.2222 37.7778 22.2222 37.7778 22.2222H35.5556C35.5556 22.2222 33.3333 22.2222 33.3333 20C33.3333 17.7778 35.5556 17.7778 35.5556 17.7778H37.7778ZM4.44444 17.7778C4.44444 17.7778 6.66667 17.7778 6.66667 20C6.66667 22.2222 4.44444 22.2222 4.44444 22.2222H2.22222C2.22222 22.2222 0 22.2222 0 20C0 17.7778 2.22222 17.7778 2.22222 17.7778H4.44444ZM10.1344 8.10333C10.1344 8.10333 11.7056 9.67445 10.1344 11.2456C8.56333 12.8167 6.99222 11.2456 6.99222 11.2456L5.42 9.67556C5.42 9.67556 3.84889 8.10445 5.42 6.53222C6.99222 4.96111 8.56333 6.53222 8.56333 6.53222L10.1344 8.10333ZM33.4678 31.4367C33.4678 31.4367 35.0389 33.0078 33.4678 34.5789C31.8967 36.15 30.3256 34.5789 30.3256 34.5789L28.7544 33.0078C28.7544 33.0078 27.1833 31.4367 28.7544 29.8656C30.3256 28.2944 31.8967 29.8656 31.8967 29.8656L33.4678 31.4367ZM33.0089 11.2456C33.0089 11.2456 31.4378 12.8167 29.8667 11.2456C28.2956 9.67445 29.8667 8.10333 29.8667 8.10333L31.4378 6.53222C31.4378 6.53222 33.0089 4.96111 34.58 6.53222C36.1511 8.10333 34.58 9.67444 34.58 9.67444L33.0089 11.2456ZM9.67556 34.5789C9.67556 34.5789 8.10445 36.15 6.53333 34.5789C4.96222 33.0078 6.53333 31.4367 6.53333 31.4367L8.10445 29.8656C8.10445 29.8656 9.67556 28.2944 11.2467 29.8656C12.8178 31.4367 11.2467 33.0078 11.2467 33.0078L9.67556 34.5789ZM17.7778 35.5556C17.7778 35.5556 17.7778 33.3333 20 33.3333C22.2222 33.3333 22.2222 35.5556 22.2222 35.5556V37.7778C22.2222 37.7778 22.2222 40 20 40C17.7778 40 17.7778 37.7778 17.7778 37.7778V35.5556Z" fill="#FFAC33"/>
<path d="M20.0003 31.1111C26.1368 31.1111 31.1114 26.1365 31.1114 20C31.1114 13.8635 26.1368 8.88889 20.0003 8.88889C13.8638 8.88889 8.88916 13.8635 8.88916 20C8.88916 26.1365 13.8638 31.1111 20.0003 31.1111Z" fill="#FFAC33"/>
</svg>
